#!OML:ASF X:\für Bonn\!DataBase\2005_08_12_Daniel\c3d\Daniel.ASF
:FULLY-SPECIFIED
:DEGREES
369
root 21.5202 1.36167 0.0739659 -1284.87 260.257 98.7758
lowerback 19.6455 -2.84019 -5.19831
upperback 4.07055 -5.23588 -1.84934
thorax -6.26865 -2.61959 2.24575
lowerneck -13.5386 1.65843 -7.38379
upperneck 7.36187 3.31606 1.88227
head 4.24767 1.51045 2.00935
rclavicle 1.49884e-013 -1.29384e-013
rhumerus -413.532 -31.0353 306.084
rradius 9.41764
rwrist 77.0951
rhand -17.5852 733.451
rfingers 7.12502
rthumb 8.67068 703.649
lclavicle 1.49884e-013 -1.29384e-013
lhumerus -402.669 21.4912 -285.912
lradius 22.9969
lwrist -37.1952
lhand -22.9122 -725.451
lfingers 7.12502
lthumb 3.52793 24.4992
rfemur 15.5082 20.9623 20.9834
rtibia 23.9109
rfoot 331.132 -26.7812
rtoes 38.2483
lfemur 5.75213 -25.2966 -30.1519
ltibia 29.7659
lfoot 18.7029 10.2251
ltoes -2.90146
370
root 21.514 1.35835 0.0751992 -1284.31 260.291 98.4255
lowerback 19.4356 -2.86376 -5.1105
upperback 4.00401 -5.23036 -1.83067
thorax -6.23534 -2.61535 2.2034
lowerneck -13.6704 1.67041 -7.33431
upperneck 7.38028 3.3317 1.90245
head 4.2742 1.52053 2.01099
rclavicle 9.14409e-014 -2.17359e-014
rhumerus -413.493 -31.1779 306.144
rradius 9.34661
rwrist 77.4542
rhand -17.041 733.455
rfingers 7.12502
rthumb 9.19582 703.675
lclavicle 9.14409e-014 -2.17359e-014
lhumerus -403.106 22.5011 -286.988
lradius 22.0664
lwrist -39.1621
lhand -23.2243 -725.563
lfingers 7.12502
lthumb 3.22646 24.3922
rfemur 15.4159 21.6626 21.3586
rtibia 23.929
rfoot 330.255 -26.3194
rtoes 38.3152
lfemur 5.35283 -25.1195 -29.7915
ltibia 29.9115
lfoot 18.8153 10.7365
ltoes -2.44222
371
root 21.5088 1.35576 0.0763055 -1283.79 260.332 98.1138
lowerback 19.2219 -2.87283 -5.02074
upperback 3.95148 -5.20575 -1.81874
thorax -6.18672 -2.60291 2.1476
lowerneck -13.8146 1.65088 -7.29801
upperneck 7.37071 3.30697 1.93333
head 4.29557 1.51179 2.01506
rclavicle -4.05521e-014 -3.35325e-014
rhumerus -413.489 -31.346 306.224
rradius 9.34967
rwrist 77.7374
rhand -16.6784 733.638
rfingers 7.12502
rthumb 9.54565 703.874
lclavicle -4.05521e-014 -3.35325e-014
lhumerus -403.56 23.4947 -288.096
lradius 21.187
lwrist -41.2706
lhand -23.4694 -725.587
lfingers 7.12502
lthumb 2.98977 24.3721
rfemur 15.2636 22.1227 21.5849
rtibia 23.9408
rfoot 329.792 -26.0492
rtoes 38.099
lfemur 4.97428 -24.9738 -29.4597
ltibia 30.0539
lfoot 18.8357 11.2972
ltoes -2.10359
372
root 21.5048 1.35271 0.0773702 -1283.35 260.376 97.8727
lowerback 19.0217 -2.88454 -4.94648
upperback 3.89685 -5.18962 -1.8106
thorax -6.14571 -2.59418 2.09944
lowerneck -13.9326 1.64604 -7.24932
upperneck 7.36373 3.29979 1.93992
head 4.31334 1.51032 2.01048
rclavicle -7.99114e-014 2.47269e-014
rhumerus -413.544 -31.4348 306.337
rradius 9.43329
rwrist 78.0185
rhand -16.5179 734.008
rfingers 7.12502
rthumb 9.70055 704.252
lclavicle -7.99114e-014 2.47269e-014
lhumerus -404.094 24.5794 -289.33
lradius 20.3447
lwrist -43.5871
lhand -23.6601 -725.644
lfingers 7.12502
lthumb 2.80563 24.317
rfemur 15.0571 22.3258 21.6531
rtibia 23.9435
rfoot 329.715 -25.9664
rtoes 37.8059
lfemur 4.61798 -24.8037 -29.1524
ltibia 30.1763
lfoot 18.9181 11.75
ltoes -1.90046
373
root 21.5027 1.35093 0.0780627 -1282.91 260.423 97.6422
lowerback 18.8132 -2.89045 -4.88574
upperback 3.83635 -5.1673 -1.78981
thorax -6.10434 -2.58186 2.07057
lowerneck -14.0883 1.63289 -7.204
upperneck 7.39088 3.28645 1.93571
head 4.3482 1.50428 2.00362
rclavicle -1.31198e-014 4.23908e-014
rhumerus -413.627 -31.4979 306.487
rradius 9.56733
rwrist 78.2776
rhand -16.4693 734.465
rfingers 7.12502
rthumb 9.74735 704.711
lclavicle -1.31198e-014 4.23908e-014
lhumerus -404.683 25.6365 -290.582
lradius 19.5846
lwrist -45.9727
lhand -23.8109 -725.604
lfingers 7.12502
lthumb 2.66002 24.3587
rfemur 14.7856 22.3062 21.5859
rtibia 23.9334
rfoot 329.941 -25.9887
rtoes 37.3504
lfemur 4.3003 -24.7466 -28.8983
ltibia 30.2657
lfoot 18.9209 12.2597
ltoes -1.98149
374
root 21.5019 1.3484 0.079403 -1282.57 260.464 97.4857
lowerback 18.6311 -2.89865 -4.83482
upperback 3.78496 -5.15308 -1.77932
thorax -6.06667 -2.57384 2.03957
lowerneck -14.2794 1.62344 -7.16506
upperneck 7.41901 3.27988 1.94863
head 4.38829 1.50244 2.00408
rclavicle 1.10922e-013 -1.20013e-013
rhumerus -413.689 -31.5645 306.61
rradius 9.69565
rwrist 78.5649
rhand -16.5344 735.015
rfingers 7.12502
rthumb 9.68455 705.258
lclavicle 1.10922e-013 -1.20013e-013
lhumerus -405.295 26.6453 -291.847
lradius 18.8779
lwrist -48.395
lhand -23.8695 -725.471
lfingers 7.12502
lthumb 2.60341 24.4928
rfemur 14.5024 22.1667 21.4369
rtibia 23.9143
rfoot 330.345 -26.1628
rtoes 36.8127
lfemur 4.03742 -24.7643 -28.7026
ltibia 30.3117
lfoot 18.8455 12.8429
ltoes -2.0321
375
root 21.5033 1.34626 0.0804904 -1282.29 260.488 97.3727
lowerback 18.4738 -2.9033 -4.80018
upperback 3.73562 -5.13926 -1.7668
thorax -6.0383 -2.56565 2.02156
lowerneck -14.458 1.6059 -7.12993
upperneck 7.46419 3.26385 1.94813
head 4.43233 1.49464 2.00032
rclavicle 5.68524e-014 -3.74305e-014
rhumerus -413.799 -31.606 306.774
rradius 9.85784
rwrist 78.8623
rhand -16.6982 735.544
rfingers 7.12502
rthumb 9.52654 705.779
lclavicle 5.68524e-014 -3.74305e-014
lhumerus -405.994 27.7645 -293.252
lradius 18.2324
lwrist -51.0993
lhand -23.8219 -725.374
lfingers 7.12502
lthumb 2.64935 24.5895
rfemur 14.2147 21.8696 21.2107
rtibia 23.8834
rfoot 331.034 -26.5121
rtoes 36.2678
lfemur 3.8285 -24.81 -28.5345
ltibia 30.3188
lfoot 18.751 13.4364
ltoes -1.82511
376
root 21.5071 1.34502 0.0827 -1282.14 260.525 97.3989
lowerback 18.2865 -2.9041 -4.76815
upperback 3.69141 -5.11992 -1.77281
thorax -5.99001 -2.55552 1.98187
lowerneck -14.6375 1.59625 -7.05408
upperneck 7.49664 3.25132 1.93794
head 4.47315 1.48947 1.98716
rclavicle 9.58142e-014 -7.88771e-014
rhumerus -413.949 -31.6222 306.949
rradius 10.0394
rwrist 79.1265
rhand -16.7983 736.06
rfingers 7.12502
rthumb 9.42996 706.291
lclavicle 9.58142e-014 -7.88771e-014
lhumerus -406.672 28.6482 -294.534
lradius 17.6915
lwrist -53.6289
lhand -23.7155 -725.172
lfingers 7.12502
lthumb 2.7521 24.7902
rfemur 13.8649 21.4093 20.8662
rtibia 23.8646
rfoot 332.046 -26.9647
rtoes 35.7757
lfemur 3.63984 -24.8743 -28.4057
ltibia 30.2858
lfoot 18.6209 14.0245
ltoes -1.42472
